Coordinates
version=1
nRows=29
nColumns=18
inDegrees=yes

Units are S.I. units (second, meters, Newtons, ...)
Angles are in degrees.

endheader
time	ground_thorax_rot_x	ground_thorax_rot_y	ground_thorax_rot_z	ground_thorax_tx	ground_thorax_ty	ground_thorax_tz	clav_prot	clav_elev	scapula_abduction	scapula_elevation	scapula_upward_rot	scapula_winging	plane_elv	shoulder_elv	axial_rot	elbow_flexion	pro_sup
      0.00000000	      1.28404431	     -3.40353503	     -8.73662882	     -0.00423131	      0.00403036	     -0.00078352	    -29.29183829	     -2.55337654	    -22.83441580	     -3.82930338	     15.66037871	      3.70967341	    -31.49692402	     14.76592587	     25.86277143	      0.00000000	     34.32000000
      0.01000000	      1.18680831	     -3.43346025	     -8.77025657	     -0.00423131	      0.00403036	     -0.00078352	    -29.27448909	     -2.70062495	    -22.91552089	     -3.87513753	     15.40671617	      3.82481322	    -30.93138105	     14.91512200	     24.98768450	      0.00000000	     34.32000000
      0.02000000	      1.18077332	     -3.40310711	     -8.79103450	     -0.00423131	      0.00403036	     -0.00078352	    -29.35108228	     -2.70941734	    -23.00441468	     -3.90247690	     15.46640591	      3.79896236	    -31.23547469	     14.92706407	     24.23045806	      0.00000000	     34.32000000
      0.03000000	      1.08259881	     -3.48415259	     -8.82378398	     -0.00423131	      0.00403036	     -0.00078352	    -29.27888333	     -2.86111531	    -22.97480182	     -3.95533550	     15.24267497	      3.91776883	    -30.78387518	     15.07577202	     23.51662483	      0.00000000	     34.32000000
      0.04000000	      1.15795723	     -3.67665143	     -8.67985487	     -0.00423131	      0.00403036	     -0.00078352	    -29.08624598	     -2.66683564	    -22.81339778	     -3.75037212	     15.07145142	      3.93195659	    -29.62668906	     15.25391557	     22.29498056	      0.00000000	     34.32000000
      0.05000000	      1.19279436	     -3.54608618	     -8.79883375	     -0.00423131	      0.00403036	     -0.00078352	    -29.19815232	     -2.70399032	    -22.82615230	     -3.85583484	     15.34236850	      3.85546528	    -30.71421892	     15.22687151	     21.30731250	      0.00000000	     34.32000000
      0.06000000	      1.09999476	     -3.41683216	     -8.85479082	     -0.00423131	      0.00403036	     -0.00078352	    -29.25772027	     -2.85763029	    -22.98875295	     -3.93072319	     15.16249633	      3.94071273	    -30.77459956	     15.34252990	     20.40798882	      0.00000000	     34.32000000
      0.07000000	      1.51163093	     -3.44978472	     -8.74180041	     -0.00423131	      0.00403036	     -0.00078352	    -29.26521624	     -2.42608831	    -22.88399593	     -3.70743027	     15.56760210	      3.69805954	    -30.51148593	     15.31493077	     19.80329010	      0.00000000	     34.32000000
      0.08000000	      1.21500577	     -3.34045562	     -8.80258684	     -0.00423131	      0.00403036	     -0.00078352	    -29.34798790	     -2.77235495	    -23.06009551	     -3.91625969	     15.33434412	      3.85324102	    -31.26341213	     15.33313767	     20.57349974	      0.00000000	     34.32000000
      0.09000000	      1.21379018	     -3.37630499	     -8.80412481	     -0.00423131	      0.00403036	     -0.00078352	    -29.35009162	     -2.76284358	    -23.06829644	     -3.90864035	     15.33181043	      3.85078836	    -31.25434259	     15.32823452	     20.59125522	      0.00000000	     34.32000000
      0.10000000	      1.41159953	     -3.25623342	     -8.94581531	     -0.00423131	      0.00403036	     -0.00078352	    -29.56714336	     -2.70245511	    -23.38870536	     -3.90304493	     15.42829770	      3.76784512	    -30.14656239	     15.32630263	     19.61137314	      0.00000000	     34.32000000
      0.11000000	      1.26370550	     -3.57715347	     -8.70266196	     -0.00423131	      0.00403036	     -0.00078352	    -29.16141020	     -2.61104135	    -22.70072766	     -3.82138001	     15.49403733	      3.79324061	    -31.63088769	     15.24691737	     21.69985845	      0.00000000	     34.32000000
      0.12000000	      1.52533362	     -3.58640675	     -8.73393316	     -0.00423131	      0.00403036	     -0.00078352	    -29.20118890	     -2.41050617	    -22.75671463	     -3.70161624	     15.60921683	      3.69351064	    -30.71492337	     15.37870092	     19.59655382	      0.00000000	     34.32000000
      0.13000000	      1.65004378	     -3.65542704	     -8.63844277	     -0.00423131	      0.00403036	     -0.00078352	    -29.12194743	     -2.28615466	    -22.62023501	     -3.61925651	     15.67790409	      3.65084414	    -30.50901082	     15.50924444	     19.08358292	      0.00000000	     34.32000000
      0.14000000	      1.70898593	     -3.51556924	     -8.85504919	     -0.00423131	      0.00403036	     -0.00078352	    -29.37222889	     -2.34347075	    -23.03605349	     -3.67387900	     15.65142116	      3.63169526	    -29.56376663	     15.41175416	     18.21455289	      0.00000000	     34.32000000
      0.15000000	      1.26785325	     -3.40812475	     -8.74971919	     -0.00423131	      0.00403036	     -0.00078352	    -29.38828223	     -2.64396371	    -23.11155664	     -3.84481350	     15.42399417	      3.78249545	    -31.23894177	     15.11952465	     22.84132222	      0.00000000	     34.32000000
      0.16000000	      1.26599785	     -3.45574166	     -8.76422693	     -0.00423131	      0.00403036	     -0.00078352	    -29.34774079	     -2.67378615	    -23.02828451	     -3.86721725	     15.43484131	      3.79602870	    -31.33539445	     15.09191397	     23.14467383	      0.00000000	     34.32000000
      0.17000000	      1.38021398	     -3.40820452	     -8.79879896	     -0.00423131	      0.00403036	     -0.00078352	    -29.43831996	     -2.62533128	    -23.23424796	     -3.81951626	     15.36633736	      3.78161996	    -30.24100783	     15.20281174	     21.66196101	      0.00000000	     34.32000000
      0.18000000	      1.41584791	     -3.39024605	     -8.80451784	     -0.00423131	      0.00403036	     -0.00078352	    -29.41976097	     -2.64557660	    -23.20693471	     -3.82967085	     15.35110631	      3.79584398	    -30.26341381	     15.21373382	     21.67683138	      0.00000000	     34.32000000
      0.19000000	      1.27805042	     -3.47927725	     -8.81659468	     -0.00423131	      0.00403036	     -0.00078352	    -29.30141911	     -2.79653874	    -22.99810893	     -3.92200974	     15.29764838	      3.87895868	    -30.87040139	     15.35298064	     21.22915158	      0.00000000	     34.32000000
      0.20000000	      1.20432951	     -3.48880976	     -8.82959192	     -0.00423131	      0.00403036	     -0.00078352	    -29.25334852	     -2.88075491	    -22.88371186	     -3.98651322	     15.31364680	      3.91001626	    -31.60768944	     15.38889335	     21.37152287	      0.00000000	     34.32000000
      0.21000000	      1.28045789	     -3.39215351	     -8.71089112	     -0.00423131	      0.00403036	     -0.00078352	    -29.34420219	     -2.71865549	    -23.07144450	     -3.87458474	     15.33136395	      3.83732037	    -31.56331443	     15.37357126	     21.58074416	      0.00000000	     34.32000000
      0.22000000	      1.34714774	     -3.40461149	     -8.75344864	     -0.00423131	      0.00403036	     -0.00078352	    -29.34831809	     -2.73378802	    -23.09231796	     -3.87868195	     15.30114918	      3.84955613	    -31.12541951	     15.41537951	     21.55074068	      0.00000000	     34.32000000
      0.23000000	      1.22556682	     -3.29590814	     -8.73912580	     -0.00423131	      0.00403036	     -0.00078352	    -29.41147122	     -2.79879459	    -23.21910405	     -3.91520852	     15.23340906	      3.87671073	    -31.47292184	     15.42201677	     21.52149176	      0.00000000	     34.32000000
      0.24000000	      1.31636276	     -3.23610132	     -8.75754656	     -0.00423131	      0.00403036	     -0.00078352	    -29.48654135	     -2.74165915	    -23.28432033	     -3.90963793	     15.36028909	      3.81254533	    -31.65291436	     15.32031054	     21.81099651	      0.00000000	     34.32000000
      0.25000000	      1.28373574	     -3.25648599	     -8.71262786	     -0.00423131	      0.00403036	     -0.00078352	    -29.46552857	     -2.75845447	    -23.28716770	     -3.90276329	     15.28929396	      3.83978294	    -31.58541269	     15.41286396	     21.79799923	      0.00000000	     34.32000000
      0.26000000	      1.44678413	     -3.21010499	     -8.69946420	     -0.00423131	      0.00403036	     -0.00078352	    -29.57224225	     -2.60614522	    -23.51702309	     -3.79165085	     15.27620144	      3.77483445	    -30.84330762	     15.54049743	     20.70052008	      0.00000000	     34.32000000
      0.27000000	      1.16831350	     -3.43957784	     -8.81533018	     -0.00423131	      0.00403036	     -0.00078352	    -29.38694811	     -2.89781459	    -23.16771647	     -3.98088629	     15.20334715	      3.92107286	    -31.86425153	     15.43318853	     21.47529442	      0.00000000	     34.32000000
      0.28000000	      1.33382359	     -3.43923755	     -8.70963240	     -0.00423131	      0.00403036	     -0.00078352	    -29.44713115	     -2.69088436	    -23.36675488	     -3.81186046	     15.13911893	      3.85996867	    -30.98193118	     15.67842880	     20.62085663	      0.00000000	     34.32000000
